<?xml version="1.0" standalone="no"?>
<!DOCTYPE svg PUBLIC "-//W3C//DTD SVG 20010904//EN"
 "http://www.w3.org/TR/2001/REC-SVG-20010904/DTD/svg10.dtd">
<svg version="1.0" xmlns="http://www.w3.org/2000/svg"
 width="526.000000pt" height="526.000000pt" viewBox="0 0 526.000000 526.000000"
 preserveAspectRatio="xMidYMid meet">
<metadata>
Created by potrace 1.14, written by Peter Selinger 2001-2017
</metadata>
<g transform="translate(0.000000,526.000000) scale(0.100000,-0.100000)"
fill="#000000" stroke="none">
<path d="M2215 5242 c-62 -10 -72 -22 -276 -335 -348 -538 -371 -573 -504
-777 -71 -110 -146 -225 -166 -257 -77 -122 -648 -999 -658 -1010 -6 -7 -11
-15 -11 -18 0 -3 -42 -69 -93 -148 -52 -78 -144 -221 -207 -317 -62 -96 -130
-200 -150 -231 -64 -94 -93 -160 -96 -214 -3 -62 19 -154 54 -220 29 -55 143
-173 213 -220 24 -16 46 -33 49 -37 5 -6 93 -49 295 -143 39 -18 162 -75 275
-127 295 -137 379 -176 435 -203 28 -13 91 -42 140 -66 50 -23 122 -56 160
-74 39 -18 100 -46 137 -63 36 -17 104 -49 150 -71 45 -21 108 -50 138 -64 30
-14 99 -46 153 -71 54 -25 100 -46 103 -46 3 0 20 16 38 35 29 30 40 35 80 35
52 0 72 -9 125 -60 48 -47 91 -83 148 -126 27 -19 53 -43 60 -51 7 -9 30 -17
51 -19 48 -3 175 -41 217 -63 44 -24 75 -62 75 -94 0 -25 10 -32 135 -91 142
-68 161 -71 215 -39 20 11 42 49 81 137 30 66 54 123 54 126 1 3 8 21 17 40 8
19 68 157 133 305 64 149 135 309 156 358 21 48 39 89 39 91 0 3 13 33 29 68
16 35 108 248 206 473 97 226 190 438 206 473 16 35 29 67 29 71 0 4 11 29 24
57 13 27 58 130 101 229 81 189 89 207 128 295 13 30 52 118 85 195 67 157
326 754 347 800 58 131 66 153 61 181 -7 40 -36 60 -119 84 -40 12 -85 26
-102 33 -16 6 -33 11 -37 9 -18 -5 -6 45 29 121 36 82 49 160 31 184 -10 13
-115 47 -433 143 -93 28 -228 69 -300 91 -71 23 -146 45 -165 51 -19 5 -210
64 -425 129 -642 197 -605 187 -605 170 0 -18 -62 -40 -103 -36 -21 1 -64 20
-99 43 -35 21 -83 49 -108 62 -25 12 -47 26 -50 30 -3 4 -38 10 -77 14 -103 9
-173 34 -192 69 -13 23 -34 34 -111 60 -53 18 -105 31 -115 29z"/>
</g>
</svg>
