<?xml version="1.0" standalone="no"?>
<!DOCTYPE svg PUBLIC "-//W3C//DTD SVG 20010904//EN"
 "http://www.w3.org/TR/2001/REC-SVG-20010904/DTD/svg10.dtd">
<svg version="1.0" xmlns="http://www.w3.org/2000/svg"
 width="334.000000pt" height="488.000000pt" viewBox="0 0 334.000000 488.000000"
 preserveAspectRatio="xMidYMid meet">

<g transform="translate(0.000000,488.000000) scale(0.100000,-0.100000)"
fill="#000000" stroke="none">
<path d="M772 4862 l-102 -16 6 -50 c10 -94 8 -91 132 -172 64 -43 123 -77
130 -77 6 0 12 -3 12 -7 0 -7 75 -60 84 -60 3 0 2 7 -1 17 -4 11 -3 14 6 9 7
-5 10 -14 7 -21 -5 -15 189 -142 210 -137 8 2 14 -4 14 -12 0 -8 19 -27 43
-40 26 -16 50 -40 60 -61 9 -19 20 -35 25 -35 5 0 9 -6 9 -12 0 -11 57 -113
103 -188 5 -8 59 -103 120 -210 442 -775 516 -900 533 -900 18 0 24 -16 7 -22
-5 -1 39 -87 98 -189 98 -169 107 -190 104 -228 -2 -24 0 -41 6 -41 10 0 -34
-78 -294 -528 -52 -89 -92 -167 -89 -171 3 -5 -1 -11 -8 -14 -14 -5 -122 -189
-129 -217 -2 -8 -7 -18 -12 -22 -5 -3 -23 -31 -40 -61 -17 -31 -106 -185 -198
-344 -91 -158 -175 -305 -187 -325 -57 -104 -73 -120 -181 -191 -97 -62 -107
-72 -92 -83 23 -17 9 -29 -16 -13 -17 10 -25 10 -47 -5 -25 -16 -25 -19 -11
-35 9 -10 18 -31 20 -47 5 -41 16 -65 27 -58 5 3 9 -9 9 -25 0 -17 5 -31 10
-31 6 0 10 -9 10 -20 0 -11 7 -23 15 -27 9 -3 15 -13 14 -22 -3 -27 12 -51 33
-51 12 0 18 -6 16 -16 -2 -10 3 -19 11 -22 10 -3 12 0 8 11 -3 9 -2 19 2 22
12 7 22 -21 15 -40 -4 -9 4 -23 17 -35 32 -26 134 -29 143 -3 5 12 9 14 14 6
5 -8 37 0 110 29 94 38 125 58 87 58 -8 0 -15 5 -15 10 0 6 12 10 26 10 20 0
25 4 20 17 -6 15 -5 15 13 -1 19 -17 21 -16 78 31 62 51 133 141 133 168 0 9
4 14 8 11 12 -7 55 53 48 69 -2 7 4 15 15 18 12 3 17 11 13 20 -3 9 2 16 13
19 10 3 121 151 247 329 336 475 311 435 298 464 -9 20 -9 25 3 25 8 0 12 -6
9 -14 -3 -8 -2 -16 3 -19 7 -4 512 697 522 726 2 6 8 16 13 22 4 5 18 21 29
35 11 14 65 89 120 166 l99 142 0 64 c0 57 -4 69 -36 113 -99 139 -169 237
-212 299 -45 67 -47 69 -50 40 -2 -16 -15 -43 -28 -61 -13 -17 -24 -38 -24
-45 0 -10 -2 -10 -9 1 -5 8 -16 11 -24 8 -19 -7 -81 23 -126 62 l-34 30 27 36
c15 19 32 35 39 35 7 0 5 -6 -5 -14 -10 -7 -22 -24 -27 -38 -8 -22 -5 -28 30
-55 36 -28 43 -30 86 -22 72 14 78 25 59 120 l-8 35 -51 -7 c-62 -8 -70 -4
-31 13 16 7 32 17 35 22 4 5 13 5 20 0 8 -4 -8 23 -35 61 -71 100 -87 120 -97
121 -22 3 -23 5 -9 14 12 7 11 10 -5 17 -11 4 -20 15 -20 23 0 8 -6 14 -13 12
-6 -1 -11 1 -10 5 2 12 -19 56 -41 83 -18 22 -20 23 -26 7 -9 -22 -25 -22 -26
1 0 10 -3 12 -6 4 -2 -6 -9 -9 -15 -6 -6 4 -8 1 -6 -7 3 -8 9 -13 14 -12 5 0
17 -10 27 -23 16 -21 16 -24 2 -24 -9 0 -13 -4 -10 -10 3 -5 -1 -10 -9 -10
-14 0 -21 -17 -18 -41 1 -4 -8 -5 -18 -2 -23 6 -26 19 -7 26 10 4 10 6 0 6 -7
1 -13 9 -12 19 0 10 3 12 6 5 3 -10 10 -10 24 -2 26 13 19 33 -13 39 -26 5
-26 5 -11 42 10 24 19 35 29 31 7 -3 17 2 20 10 5 15 -157 257 -177 265 -5 2
-9 9 -9 15 0 7 -11 24 -25 39 -14 15 -25 32 -25 37 0 5 -10 17 -22 26 -13 8
-23 19 -23 23 0 4 -5 6 -11 4 -6 -1 -17 12 -24 30 -7 18 -25 43 -39 56 -19 17
-21 21 -7 16 19 -7 17 3 -6 31 -11 13 -103 142 -125 175 -72 107 -190 269
-210 286 -12 12 -23 25 -23 29 0 19 -63 105 -77 105 -8 0 -11 5 -8 10 10 16
-56 102 -74 95 -9 -3 -12 -3 -8 1 10 10 -23 45 -36 37 -6 -3 -7 -1 -3 5 9 14
-39 46 -55 36 -8 -5 -9 -3 -4 6 6 10 4 12 -8 7 -10 -3 -17 -2 -17 3 0 6 6 10
13 10 20 1 -31 25 -149 69 -102 38 -121 42 -215 44 -57 1 -113 -2 -124 -6 -15
-7 -17 -6 -5 2 11 7 -13 10 -88 10 -56 0 -128 2 -160 5 -31 2 -103 -3 -160
-12z m408 -52 c0 -11 -4 -20 -9 -20 -11 0 -22 26 -14 34 12 12 23 5 23 -14z
m40 5 c0 -8 -7 -15 -15 -15 -16 0 -20 12 -8 23 11 12 23 8 23 -8z m-170 -9 c0
-3 -4 -8 -10 -11 -5 -3 -10 -1 -10 4 0 6 5 11 10 11 6 0 10 -2 10 -4z m37 -73
c-9 -8 -57 17 -56 29 0 10 2 10 6 1 7 -20 26 -15 19 5 -4 11 1 9 14 -7 11 -13
19 -26 17 -28z m138 9 c3 -9 1 -18 -4 -20 -6 -2 -11 -10 -11 -19 0 -10 -6 -12
-22 -8 -28 9 -50 28 -28 24 8 -1 23 1 32 5 16 7 16 10 -5 26 l-22 18 27 -5
c15 -3 29 -12 33 -21z m215 -38 c0 -7 6 -11 14 -8 8 3 16 2 19 -3 3 -4 -8 -9
-24 -10 -16 -1 -27 2 -24 7 3 5 1 11 -5 15 -16 10 -12 25 5 19 8 -4 15 -12 15
-20z m-470 -4 c0 -5 -4 -10 -10 -10 -5 0 -10 5 -10 10 0 6 5 10 10 10 6 0 10
-4 10 -10z m150 -25 c-12 -15 -30 -12 -30 6 0 5 10 9 21 9 18 0 19 -2 9 -15z
m615 -15 c3 -5 1 -10 -4 -10 -6 0 -11 5 -11 10 0 6 2 10 4 10 3 0 8 -4 11 -10z
m-590 -10 c-3 -5 -12 -10 -18 -10 -7 0 -6 4 3 10 19 12 23 12 15 0z m455 0 c0
-5 -4 -10 -10 -10 -5 0 -10 5 -10 10 0 6 5 10 10 10 6 0 10 -4 10 -10z m-81
-24 c11 -14 5 -46 -9 -46 -15 0 -30 28 -24 44 8 20 18 20 33 2z m-549 0 c0 -3
-4 -8 -10 -11 -5 -3 -10 -1 -10 4 0 6 5 11 10 11 6 0 10 -2 10 -4z m30 -6 c0
-5 -2 -10 -4 -10 -3 0 -8 5 -11 10 -3 6 -1 10 4 10 6 0 11 -4 11 -10z m373 -5
c-3 -9 -8 -14 -10 -11 -3 3 -2 9 2 15 9 16 15 13 8 -4z m-273 -15 c0 -5 -4
-10 -10 -10 -5 0 -10 5 -10 10 0 6 5 10 10 10 6 0 10 -4 10 -10z m-49 -33 c-1
-4 -1 -17 -1 -29 0 -23 -1 -23 -14 2 -7 14 -11 29 -8 33 5 10 24 5 23 -6z
m114 3 c3 -5 2 -10 -4 -10 -5 0 -13 5 -16 10 -3 6 -2 10 4 10 5 0 13 -4 16
-10z m-45 -21 c-7 -11 -14 -18 -17 -15 -8 8 5 36 17 36 7 0 7 -6 0 -21z m97 5
c-3 -3 -12 -4 -19 -1 -8 3 -5 6 6 6 11 1 17 -2 13 -5z m58 -4 c8 -13 -5 -13
-25 0 -13 8 -13 10 2 10 9 0 20 -4 23 -10z m45 -10 c0 -5 -4 -10 -10 -10 -5 0
-10 5 -10 10 0 6 5 10 10 10 6 0 10 -4 10 -10z m250 -41 c0 -6 -4 -7 -10 -4
-5 3 -10 11 -10 16 0 6 5 7 10 4 6 -3 10 -11 10 -16z m187 15 c-3 -3 -12 -4
-19 -1 -8 3 -5 6 6 6 11 1 17 -2 13 -5z m123 -9 c-7 -8 -20 -15 -28 -15 -13 0
-12 3 4 15 25 19 40 19 24 0z m-30 -67 c0 -4 -11 -8 -24 -8 -14 0 -27 4 -30 8
-3 5 8 9 24 9 17 0 30 -4 30 -9z m40 -83 c0 -21 -28 -31 -43 -16 -9 9 -8 14 3
21 22 14 40 12 40 -5z m-450 -7 c0 -4 -9 -8 -20 -8 -11 0 -20 4 -20 8 0 4 9 8
20 8 11 0 20 -4 20 -8z m207 -27 c0 -21 -6 -31 -20 -35 -18 -4 -19 -7 -6 -22
9 -12 10 -15 2 -10 -8 4 -13 1 -13 -9 0 -9 -4 -13 -10 -10 -15 9 -12 42 6 60
9 8 13 22 10 30 -3 9 0 12 10 8 7 -3 14 0 14 6 0 6 2 11 3 11 2 0 4 -13 4 -29z
m-152 1 c-3 -3 -11 0 -18 7 -9 10 -8 11 6 5 10 -3 15 -9 12 -12z m105 -3 c0
-5 -11 -9 -25 -9 -19 0 -23 -4 -18 -17 6 -16 5 -16 -10 -4 -26 21 -21 39 8 33
15 -2 25 0 25 7 0 7 5 9 10 6 6 -3 10 -10 10 -16z m154 5 c18 -18 20 -42 6
-64 -7 -10 -12 -11 -17 -4 -5 6 -16 13 -25 17 -21 7 -24 -13 -6 -31 9 -9 9
-12 0 -12 -6 0 -16 9 -22 19 -6 13 -17 18 -32 15 -13 -2 -6 2 15 10 21 9 44
13 52 10 8 -4 15 -1 15 6 0 6 -9 14 -19 17 -16 4 -17 8 -8 19 16 17 22 17 41
-2z m-225 -49 c3 -17 2 -17 -13 -3 -19 20 -21 31 -3 26 6 -3 14 -13 16 -23z
m488 0 c-4 -8 -13 -15 -22 -15 -13 0 -12 3 3 18 19 21 27 20 19 -3z m-457 -86
c0 -5 -4 -9 -10 -9 -5 0 -10 7 -10 16 0 8 5 12 10 9 6 -3 10 -10 10 -16z m210
-16 c0 -5 -5 -15 -10 -23 -8 -12 -10 -11 -10 8 0 12 5 22 10 22 6 0 10 -3 10
-7z m230 -38 c0 -8 -4 -15 -10 -15 -5 0 -10 7 -10 15 0 8 5 15 10 15 6 0 10
-7 10 -15z m-93 -17 c-3 -8 -6 -5 -6 6 -1 11 2 17 5 13 3 -3 4 -12 1 -19z m53
-33 c0 -9 -6 -12 -15 -9 -8 4 -15 10 -15 15 0 5 7 9 15 9 8 0 15 -7 15 -15z
m140 -15 c0 -5 -4 -10 -10 -10 -5 0 -10 5 -10 10 0 6 5 10 10 10 6 0 10 -4 10
-10z m-210 -60 c0 -5 -7 -10 -15 -10 -8 0 -15 5 -15 10 0 6 7 10 15 10 8 0 15
-4 15 -10z m-73 -77 c-3 -26 -10 -40 -26 -47 -29 -13 -50 6 -31 29 10 12 16
13 28 3 12 -10 14 -10 8 -1 -6 12 9 53 20 53 2 0 3 -17 1 -37z m273 -37 c0 -3
-4 -8 -10 -11 -5 -3 -10 -1 -10 4 0 6 5 11 10 11 6 0 10 -2 10 -4z m90 -46 c0
-5 -4 -10 -10 -10 -5 0 -10 5 -10 10 0 6 5 10 10 10 6 0 10 -4 10 -10z m60 0
c0 -5 -4 -10 -10 -10 -5 0 -10 5 -10 10 0 6 5 10 10 10 6 0 10 -4 10 -10z
m-485 -50 c4 -6 0 -10 -8 -10 -7 0 -24 14 -37 32 l-23 32 31 -23 c17 -12 34
-26 37 -31z m456 27 c-1 -12 -15 -9 -19 4 -3 6 1 10 8 8 6 -3 11 -8 11 -12z
m-86 -27 c3 -5 1 -10 -4 -10 -6 0 -11 5 -11 10 0 6 2 10 4 10 3 0 8 -4 11 -10z
m-352 -51 c-4 -13 -9 -17 -15 -11 -11 11 -3 32 12 32 4 0 6 -9 3 -21z m528
-33 c4 -5 12 -5 18 -2 6 4 11 3 11 -3 0 -15 -20 -24 -33 -14 -16 12 -75 7 -92
-7 -8 -6 -19 -9 -24 -5 -16 9 9 43 29 38 9 -2 22 2 29 11 10 12 17 13 34 3 12
-7 25 -16 28 -21z m-581 14 c0 -5 -4 -10 -10 -10 -5 0 -10 5 -10 10 0 6 5 10
10 10 6 0 10 -4 10 -10z m83 -13 c-5 -26 -35 -30 -56 -7 -10 10 -8 12 10 7 13
-3 24 1 27 9 9 23 24 16 19 -9z m168 6 c13 -16 12 -17 -3 -4 -17 13 -22 21
-14 21 2 0 10 -8 17 -17z m407 -38 c13 5 14 3 5 -6 -14 -14 -33 -3 -32 19 1
15 2 14 6 -1 3 -12 10 -16 21 -12z m-389 -2 c3 -2 -6 -14 -19 -26 -13 -12 -18
-14 -11 -4 11 14 11 17 -3 17 -9 0 -16 7 -16 16 0 11 6 14 23 8 12 -3 24 -8
26 -11z m261 -53 c0 -5 -7 -7 -15 -4 -8 4 -15 8 -15 10 0 2 7 4 15 4 8 0 15
-4 15 -10z m-200 -30 c0 -5 -4 -10 -10 -10 -5 0 -10 5 -10 10 0 6 5 10 10 10
6 0 10 -4 10 -10z m210 0 c0 -5 -2 -10 -4 -10 -3 0 -8 5 -11 10 -3 6 -1 10 4
10 6 0 11 -4 11 -10z m85 -40 c3 -5 2 -10 -4 -10 -5 0 -13 5 -16 10 -3 6 -2
10 4 10 5 0 13 -4 16 -10z m-165 -26 c0 -14 -4 -23 -9 -20 -5 3 -7 15 -4 26 7
28 13 25 13 -6z m330 -4 c0 -5 -7 -10 -16 -10 -8 0 -12 5 -9 10 3 6 10 10 16
10 5 0 9 -4 9 -10z m-437 -30 c3 -11 1 -20 -4 -20 -5 0 -9 9 -9 20 0 11 2 20
4 20 2 0 6 -9 9 -20z m327 -15 c-14 -17 -5 -36 15 -28 9 3 15 -1 15 -11 0 -18
-15 -22 -25 -6 -3 5 -11 7 -19 4 -18 -7 -16 28 3 43 22 17 26 16 11 -2z m160
-64 c0 -12 -20 -25 -27 -18 -7 7 6 27 18 27 5 0 9 -4 9 -9z m70 -1 c0 -5 -7
-10 -16 -10 -8 0 -12 5 -9 10 3 6 10 10 16 10 5 0 9 -4 9 -10z m-250 -25 c0
-8 -4 -15 -10 -15 -5 0 -10 7 -10 15 0 8 5 15 10 15 6 0 10 -7 10 -15z m135
-5 c3 -5 1 -10 -4 -10 -6 0 -11 5 -11 10 0 6 2 10 4 10 3 0 8 -4 11 -10z m-55
-25 c0 -16 25 -26 45 -19 8 4 15 1 15 -6 0 -6 5 -8 10 -5 12 7 12 3 4 -19 -3
-9 -10 -16 -15 -16 -4 0 -6 7 -3 15 4 8 1 15 -5 15 -6 0 -11 -4 -11 -9 0 -5
-9 -7 -20 -4 -11 3 -20 9 -20 13 0 4 -8 7 -17 6 -12 -1 -18 7 -19 25 -2 22 1
26 17 22 10 -3 19 -11 19 -18z m100 15 c0 -5 -5 -10 -11 -10 -5 0 -7 5 -4 10
3 6 8 10 11 10 2 0 4 -4 4 -10z m50 -30 c0 -11 -4 -20 -10 -20 -5 0 -7 -6 -4
-14 4 -11 0 -13 -15 -9 -25 6 -27 18 -6 27 8 3 15 12 15 21 0 8 5 15 10 15 6
0 10 -9 10 -20z m-340 -63 c0 -18 -2 -19 -10 -7 -13 20 -13 43 0 35 6 -3 10
-16 10 -28z m485 -35 c0 -22 7 -37 25 -49 28 -19 40 -33 40 -48 -1 -5 -5 -2
-11 8 -17 28 -29 19 -14 -10 13 -25 13 -29 -3 -35 -27 -10 -32 -9 -32 8 0 14
-1 14 -16 0 -8 -9 -21 -13 -27 -9 -7 4 -18 8 -25 9 -37 6 -40 12 -30 51 5 21
10 45 10 53 2 19 29 41 46 35 6 -2 12 3 12 11 0 9 6 14 13 11 6 -2 12 -18 12
-35z m-455 4 c0 -3 -4 -8 -10 -11 -5 -3 -10 -1 -10 4 0 6 5 11 10 11 6 0 10
-2 10 -4z m38 -21 c-3 -3 -9 2 -12 12 -6 14 -5 15 5 6 7 -7 10 -15 7 -18z
m232 14 c0 -5 -4 -7 -10 -4 -5 3 -10 1 -10 -4 0 -6 -4 -11 -10 -11 -5 0 -7 7
-4 15 7 17 34 21 34 4z m-186 -34 c4 -14 11 -25 17 -25 6 0 8 4 4 9 -10 16 12
21 25 6 17 -21 -15 -33 -43 -16 -16 10 -21 10 -28 0 -12 -19 3 -30 41 -31 24
-1 28 -3 16 -10 -9 -5 -23 -8 -32 -6 -9 2 -19 -3 -22 -11 -3 -9 0 -12 10 -8
13 4 14 1 4 -19 -9 -21 -16 -24 -41 -19 -16 4 -36 7 -42 8 -18 1 -16 10 8 36
16 16 24 20 29 11 5 -9 9 -9 14 -1 4 6 4 17 -1 24 -12 19 -12 37 0 37 5 0 7 3
4 7 -7 7 11 33 23 33 4 0 11 -11 14 -25z m169 -32 c7 -9 5 -13 -7 -13 -11 0
-16 8 -15 28 0 15 3 21 6 12 3 -8 10 -21 16 -27z m27 21 c0 -8 -4 -12 -10 -9
-5 3 -10 10 -10 16 0 5 5 9 10 9 6 0 10 -7 10 -16z m-114 -19 c-9 -9 -16 -13
-16 -8 0 12 22 34 28 28 2 -2 -3 -11 -12 -20z m164 8 c0 -10 3 -28 6 -40 4
-14 2 -23 -5 -23 -7 0 -10 4 -6 9 3 5 1 12 -5 16 -13 8 -13 55 0 55 6 0 10 -8
10 -17z m-386 -35 c7 -5 6 -8 -4 -8 -8 1 -23 7 -33 14 -18 14 -18 14 0 18 10
2 20 -1 22 -7 2 -5 9 -13 15 -17z m366 -10 c0 -6 -7 -5 -15 2 -8 7 -15 17 -15
22 0 6 7 5 15 -2 8 -7 15 -17 15 -22z m-19 -26 c-6 -2 -11 -10 -11 -18 0 -8
-4 -14 -10 -14 -5 0 -10 7 -10 15 0 8 5 15 11 15 6 0 8 7 5 16 -6 15 -4 15 10
3 10 -8 12 -15 5 -17z m-71 -6 c-7 -7 -13 -7 -20 0 -6 6 -3 10 10 10 13 0 16
-4 10 -10z m69 -80 c13 -8 12 -10 -4 -17 -31 -12 -45 -10 -39 4 3 8 -2 20 -11
27 -16 14 -21 35 -5 25 6 -3 10 0 10 7 0 7 8 1 17 -12 9 -14 24 -29 32 -34z
m-329 34 c0 -5 -7 -10 -16 -10 -8 0 -12 5 -9 10 3 6 10 10 16 10 5 0 9 -4 9
-10z m360 -35 c7 -9 8 -15 2 -15 -5 0 -12 7 -16 15 -3 8 -4 15 -2 15 2 0 9 -7
16 -15z m-475 -35 c3 -6 -1 -7 -9 -4 -18 7 -21 14 -7 14 6 0 13 -4 16 -10z
m448 -25 c-5 -13 -23 -22 -23 -11 0 15 14 35 21 31 4 -3 6 -12 2 -20z m-343
-5 c0 -5 -2 -10 -4 -10 -3 0 -8 5 -11 10 -3 6 -1 10 4 10 6 0 11 -4 11 -10z
m67 -10 c-1 -21 -10 -18 -13 5 -1 8 2 15 6 15 5 0 8 -9 7 -20z m237 -4 c-6
-15 -24 -23 -24 -11 0 8 24 34 28 30 1 -1 0 -10 -4 -19z m-97 -11 c0 -8 -4
-15 -9 -15 -10 0 -11 14 -1 23 9 10 10 9 10 -8z m-252 -34 c-3 -6 -11 -11 -16
-11 -5 0 -4 6 3 14 14 16 24 13 13 -3z m360 9 c3 -5 1 -10 -4 -10 -6 0 -11 5
-11 10 0 6 2 10 4 10 3 0 8 -4 11 -10z m-305 -57 c0 -2 -4 -2 -9 1 -5 4 -20 2
-33 -3 -19 -7 -25 -6 -25 6 0 9 7 13 19 10 15 -4 18 -1 12 16 -6 21 -6 21 15
-2 11 -13 21 -26 21 -28z m50 6 c0 -5 -4 -9 -10 -9 -5 0 -10 7 -10 16 0 8 5
12 10 9 6 -3 10 -10 10 -16z m185 1 c3 -5 1 -10 -4 -10 -6 0 -11 5 -11 10 0 6
2 10 4 10 3 0 8 -4 11 -10z m269 -8 c6 -10 -30 -9 -40 1 -4 4 2 7 14 7 11 0
23 -4 26 -8z m-522 -32 c-12 -11 -24 -20 -27 -20 -3 0 0 9 7 20 7 11 19 20 27
20 11 0 9 -6 -7 -20z m63 10 c3 -6 -1 -7 -9 -4 -18 7 -21 14 -7 14 6 0 13 -4
16 -10z m225 -6 c0 -2 -7 -4 -15 -4 -8 0 -15 4 -15 10 0 5 7 7 15 4 8 -4 15
-8 15 -10z m-43 -10 c-3 -3 -12 -4 -19 -1 -8 3 -5 6 6 6 11 1 17 -2 13 -5z
m-112 -14 c3 -6 -1 -7 -9 -4 -18 7 -21 14 -7 14 6 0 13 -4 16 -10z m-30 -10
c3 -5 2 -10 -4 -10 -5 0 -13 5 -16 10 -3 6 -2 10 4 10 5 0 13 -4 16 -10z m705
-10 c0 -5 -4 -10 -10 -10 -5 0 -10 5 -10 10 0 6 5 10 10 10 6 0 10 -4 10 -10z
m-170 -20 c0 -5 -4 -10 -10 -10 -5 0 -10 5 -10 10 0 6 5 10 10 10 6 0 10 -4
10 -10z m-51 -37 c2 -2 -5 -3 -17 -3 -14 0 -22 6 -22 16 0 14 3 15 18 3 9 -7
19 -15 21 -16z m-509 7 c0 -5 -2 -10 -4 -10 -3 0 -8 5 -11 10 -3 6 -1 10 4 10
6 0 11 -4 11 -10z m550 0 c0 -5 -4 -10 -10 -10 -5 0 -10 5 -10 10 0 6 5 10 10
10 6 0 10 -4 10 -10z m-553 -62 c-3 -8 -6 -5 -6 6 -1 11 2 17 5 13 3 -3 4 -12
1 -19z m843 -2 c0 -2 -9 -6 -20 -9 -11 -3 -18 -1 -14 4 5 9 34 13 34 5z m-340
-36 c0 -5 -5 -10 -11 -10 -5 0 -7 5 -4 10 3 6 8 10 11 10 2 0 4 -4 4 -10z
m120 -11 c0 -18 -2 -19 -15 -9 -8 7 -15 16 -15 21 0 5 7 9 15 9 9 0 15 -9 15
-21z m-50 -29 c0 -5 -8 -10 -17 -10 -15 0 -16 2 -3 10 19 12 20 12 20 0z m278
-15 c-3 -3 -9 2 -12 12 -6 14 -5 15 5 6 7 -7 10 -15 7 -18z m-248 -22 c-11
-17 -11 -17 -6 0 3 10 6 24 7 30 0 9 2 9 5 0 3 -7 0 -20 -6 -30z m190 18 c0
-23 -23 -70 -32 -65 -6 4 -5 9 3 14 10 7 10 11 0 24 -7 8 -10 20 -6 26 7 12
35 14 35 1z m-660 -31 c0 -5 -7 -7 -15 -4 -8 4 -12 10 -9 15 6 11 24 2 24 -11z
m577 -12 c-24 -24 -25 -24 -37 -5 -10 16 -10 19 2 15 8 -3 22 0 33 8 28 21 29
9 2 -18z m-368 1 c-16 -10 -23 -4 -14 10 3 6 11 8 17 5 6 -4 5 -9 -3 -15z
m621 -89 c0 -5 -4 -10 -10 -10 -5 0 -10 5 -10 10 0 6 5 10 10 10 6 0 10 -4 10
-10z m-690 -25 c7 -9 8 -15 2 -15 -5 0 -12 7 -16 15 -3 8 -4 15 -2 15 2 0 9
-7 16 -15z m370 -45 c0 -5 -7 -7 -15 -5 -51 16 -50 16 -35 25 15 9 50 -4 50
-20z m155 20 c3 -5 1 -10 -4 -10 -6 0 -11 5 -11 10 0 6 2 10 4 10 3 0 8 -4 11
-10z m-233 -12 c-9 -9 -15 -9 -24 0 -9 9 -7 12 12 12 19 0 21 -3 12 -12z m-42
-8 c0 -9 -25 -20 -46 -20 -12 0 -12 3 -3 13 14 15 49 20 49 7z m-230 -41 c0
-5 -5 -9 -11 -9 -5 0 -7 -6 -3 -12 4 -7 3 -10 -1 -5 -5 4 -10 16 -12 27 -2 14
2 18 12 14 8 -4 15 -10 15 -15z m632 -11 c-7 -7 -12 -20 -12 -30 0 -20 -8 -22
-30 -8 -13 8 -12 10 4 10 16 0 17 2 5 17 -8 9 -9 14 -4 11 6 -4 17 -3 25 3 21
12 26 11 12 -3z m-73 -14 c10 -9 -45 -3 -59 6 -11 7 -5 8 20 4 19 -4 37 -8 39
-10z m-500 -83 c-23 -46 -29 -50 -29 -22 0 19 39 76 47 68 2 -3 -6 -23 -18
-46z m-109 18 c0 -6 -4 -7 -10 -4 -5 3 -10 11 -10 16 0 6 5 7 10 4 6 -3 10
-11 10 -16z m-196 -14 c-4 -8 -14 -15 -23 -15 -14 1 -13 3 3 15 25 19 27 19
20 0z m686 -89 c0 -16 -37 -18 -43 -2 -4 9 3 14 19 14 13 0 24 -6 24 -12z
m-573 -48 c-3 -7 -5 -2 -5 12 0 14 2 19 5 13 2 -7 2 -19 0 -25z m229 -25 c-7
-7 -26 7 -26 19 0 6 6 6 15 -2 9 -7 13 -15 11 -17z m-340 6 c7 -11 -13 -29
-31 -28 -5 0 -5 3 2 5 7 3 9 12 6 20 -6 16 13 19 23 3z m694 1 c0 -5 -5 -10
-11 -10 -5 0 -7 5 -4 10 3 6 8 10 11 10 2 0 4 -4 4 -10z m-172 -39 c8 -5 12
-15 10 -22 -2 -10 -9 -8 -25 9 -22 21 -12 30 15 13z m-178 -53 c0 -4 -4 -8 -9
-8 -6 0 -12 4 -15 8 -3 5 1 9 9 9 8 0 15 -4 15 -9z m-392 -134 c-4 -3 -12 5
-18 18 -12 22 -12 22 6 6 10 -10 15 -20 12 -24z m129 -66 c-3 -8 -6 -5 -6 6
-1 11 2 17 5 13 3 -3 4 -12 1 -19z m177 5 c4 -10 4 -14 0 -11 -4 4 -15 3 -24
-2 -13 -7 -20 -5 -24 6 -4 12 -2 15 9 11 8 -4 17 -2 20 3 9 14 12 12 19 -7z
m-540 -69 c4 -9 2 -13 -5 -8 -7 4 -10 1 -7 -7 3 -8 13 -13 23 -11 12 3 16 -1
12 -12 -3 -8 -2 -18 3 -21 6 -4 10 -11 10 -17 0 -7 -9 -2 -20 10 -12 12 -25
22 -30 22 -5 0 -11 9 -15 20 -11 34 16 57 29 24z m356 -3 c0 -6 -4 -13 -10
-16 -5 -3 -10 1 -10 9 0 9 5 16 10 16 6 0 10 -4 10 -9z m-415 -211 c3 -5 -1
-10 -9 -10 -9 0 -16 5 -16 10 0 6 4 10 9 10 6 0 13 -4 16 -10z m322 -23 c-6
-15 -18 -29 -25 -32 -10 -4 -10 0 -1 18 26 50 49 62 26 14z m-410 -29 c-3 -8
-6 -5 -6 6 -1 11 2 17 5 13 3 -3 4 -12 1 -19z m470 5 c3 -7 -4 -9 -16 -6 -12
3 -18 9 -15 15 7 11 26 6 31 -9z m78 -3 c3 -5 1 -10 -4 -10 -6 0 -11 5 -11 10
0 6 2 10 4 10 3 0 8 -4 11 -10z m-455 -21 c0 -6 -4 -7 -10 -4 -5 3 -10 11 -10
16 0 6 5 7 10 4 6 -3 10 -11 10 -16z m506 -25 c-5 -13 -10 -14 -18 -6 -6 6 -8
18 -4 28 5 13 10 14 18 6 6 -6 8 -18 4 -28z m-416 -39 c0 -8 7 -15 16 -15 8 0
22 -6 29 -14 12 -12 11 -16 -6 -32 -20 -18 -20 -18 -14 9 7 27 1 31 -42 30 -7
-1 -13 8 -13 18 0 11 7 19 15 19 8 0 15 -7 15 -15z m-46 -34 c11 -4 15 -10 9
-14 -5 -3 -19 0 -29 8 -20 15 -11 18 20 6z m386 -91 c0 -5 -2 -10 -4 -10 -3 0
-8 5 -11 10 -3 6 -1 10 4 10 6 0 11 -4 11 -10z m-370 -10 c0 -5 -4 -10 -10
-10 -5 0 -10 5 -10 10 0 6 5 10 10 10 6 0 10 -4 10 -10z m-150 -69 c0 -6 -4
-13 -10 -16 -5 -3 -10 1 -10 9 0 9 5 16 10 16 6 0 10 -4 10 -9z m120 -1 c0 -5
-2 -10 -4 -10 -3 0 -8 5 -11 10 -3 6 -1 10 4 10 6 0 11 -4 11 -10z m199 -31
c11 -19 11 -21 -4 -15 -9 3 -19 6 -21 6 -2 0 -4 7 -4 15 0 21 13 19 29 -6z
m-464 -9 c3 -5 1 -10 -4 -10 -6 0 -11 5 -11 10 0 6 2 10 4 10 3 0 8 -4 11 -10z
m150 -20 c3 -5 -1 -10 -10 -10 -9 0 -13 5 -10 10 3 6 8 10 10 10 2 0 7 -4 10
-10z m295 -51 c0 -6 -6 -7 -12 -3 -15 9 9 -24 32 -44 13 -11 11 -12 -10 -6
-38 10 -49 22 -48 54 1 25 4 28 20 19 10 -5 18 -14 18 -20z m-206 -68 c-7 -33
-18 -40 -28 -16 -3 8 2 19 11 24 14 7 15 12 5 23 -6 8 -9 18 -5 22 12 12 23
-21 17 -53z m-224 33 c0 -8 -5 -12 -10 -9 -6 4 -8 11 -5 16 9 14 15 11 15 -7z
m390 -21 c0 -14 -52 -12 -57 2 -2 6 11 10 27 10 17 0 30 -5 30 -12z m-300 -29
c0 -8 -4 -14 -10 -14 -5 0 -10 9 -10 21 0 11 5 17 10 14 6 -3 10 -13 10 -21z
m152 -41 c27 -32 34 -50 11 -30 -11 9 -25 17 -31 17 -7 0 -12 7 -12 15 0 20
13 19 32 -2z m-87 -43 c3 -5 1 -10 -4 -10 -6 0 -11 5 -11 10 0 6 2 10 4 10 3
0 8 -4 11 -10z m-145 -24 c0 -21 -20 -30 -33 -17 -9 9 -8 14 3 21 21 14 30 12
30 -4z m219 -17 c-15 -9 -32 -2 -24 11 3 5 13 6 21 3 12 -4 13 -8 3 -14z m-88
-9 c5 0 9 -7 9 -17 0 -14 -2 -14 -21 3 -17 16 -22 16 -29 4 -6 -8 -10 -10 -10
-4 0 16 12 25 28 19 7 -3 18 -5 23 -5z m-205 -18 c6 -4 13 -15 17 -24 5 -15 4
-16 -13 -6 -20 13 -35 38 -22 38 4 0 12 -4 18 -8z m-126 -28 c0 -17 -22 -14
-28 4 -2 7 3 12 12 12 9 0 16 -7 16 -16z m-90 -3 c0 -5 -7 -14 -15 -21 -8 -7
-15 -27 -15 -44 l0 -31 -15 28 c-14 28 -11 62 6 51 5 -3 9 -1 9 5 0 5 -6 12
-12 14 -7 3 -1 6 15 6 15 1 27 -3 27 -8z m559 -4 c10 -13 -2 -15 -39 -8 -4 1
21 20 26 21 1 0 7 -6 13 -13z m-89 -7 c0 -5 -4 -10 -10 -10 -5 0 -10 5 -10 10
0 6 5 10 10 10 6 0 10 -4 10 -10z m-320 -10 c0 -12 -28 -25 -36 -17 -9 9 6 27
22 27 8 0 14 -5 14 -10z m-133 -22 c-3 -8 -6 -5 -6 6 -1 11 2 17 5 13 3 -3 4
-12 1 -19z m53 5 c0 -5 -5 -15 -10 -23 -9 -13 -11 -13 -20 0 -8 13 -1 21 28
29 1 1 2 -2 2 -6z m225 -13 c3 -5 2 -10 -4 -10 -5 0 -13 5 -16 10 -3 6 -2 10
4 10 5 0 13 -4 16 -10z m145 -10 c0 -5 -2 -10 -4 -10 -3 0 -8 5 -11 10 -3 6
-1 10 4 10 6 0 11 -4 11 -10z m-310 -10 c0 -5 -4 -10 -10 -10 -5 0 -10 5 -10
10 0 6 5 10 10 10 6 0 10 -4 10 -10z m285 -20 c3 -5 1 -10 -4 -10 -6 0 -11 5
-11 10 0 6 2 10 4 10 3 0 8 -4 11 -10z m-465 -15 c0 -8 -7 -15 -15 -15 -26 0
-18 20 13 29 1 1 2 -6 2 -14z m90 -25 c0 -5 -4 -10 -10 -10 -5 0 -10 5 -10 10
0 6 5 10 10 10 6 0 10 -4 10 -10z m90 -10 c0 -5 -2 -10 -4 -10 -3 0 -8 5 -11
10 -3 6 -1 10 4 10 6 0 11 -4 11 -10z m-35 -20 c3 -5 1 -10 -4 -10 -6 0 -11 5
-11 10 0 6 2 10 4 10 3 0 8 -4 11 -10z m130 -10 c3 -5 1 -10 -4 -10 -6 0 -11
5 -11 10 0 6 2 10 4 10 3 0 8 -4 11 -10z m-147 -48 c20 -31 1 -27 -22 5 -12
16 -14 24 -6 21 7 -2 20 -14 28 -26z m215 -22 c12 -24 13 -35 4 -55 -14 -29
-29 -33 -25 -7 2 11 -3 17 -15 16 -14 -2 -15 1 -7 11 6 8 18 11 26 8 8 -3 14
0 14 6 0 6 -4 11 -10 11 -5 0 -10 9 -10 20 0 28 6 25 23 -10z m-308 0 c3 -6
-1 -13 -10 -16 -19 -8 -30 0 -20 15 8 14 22 14 30 1z m485 -16 c0 -8 -4 -12
-10 -9 -5 3 -10 10 -10 16 0 5 5 9 10 9 6 0 10 -7 10 -16z m-280 -9 c0 -1 -9
-5 -19 -8 -13 -3 -18 -1 -14 9 4 10 33 10 33 -1z m165 -6 c11 -17 -1 -21 -15
-4 -8 9 -8 15 -2 15 6 0 14 -5 17 -11z m-315 -59 c0 -5 -2 -10 -4 -10 -3 0 -8
5 -11 10 -3 6 -1 10 4 10 6 0 11 -4 11 -10z m240 -36 c0 -14 -4 -22 -10 -19
-5 3 -10 14 -10 23 0 14 -2 15 -10 2 -12 -20 -23 -6 -15 19 5 17 10 19 26 11
11 -6 19 -21 19 -36z m117 4 c-3 -8 -6 -5 -6 6 -1 11 2 17 5 13 3 -3 4 -12 1
-19z m-67 -35 c-1 -25 -26 -57 -35 -44 -3 6 1 18 9 27 9 9 14 20 11 25 -4 5
-1 9 4 9 6 0 11 -8 11 -17z m-324 -28 c14 -13 13 -15 -10 -15 -16 0 -26 6 -26
15 0 8 5 15 11 15 6 0 17 -7 25 -15z m54 -21 c0 -8 -4 -14 -9 -14 -11 0 -22
26 -14 34 9 9 23 -3 23 -20z m116 -6 c5 -8 2 -9 -11 -5 -9 4 -24 2 -31 -4 -9
-7 -14 -8 -14 -1 0 20 45 29 56 10z m-76 -29 c0 -5 -4 -9 -10 -9 -5 0 -10 7
-10 16 0 8 5 12 10 9 6 -3 10 -10 10 -16z m125 11 c3 -5 1 -10 -4 -10 -6 0
-11 5 -11 10 0 6 2 10 4 10 3 0 8 -4 11 -10z m35 -22 c0 -5 -6 -8 -14 -8 -9 0
-12 7 -9 21 4 16 8 17 14 7 5 -7 9 -16 9 -20z m-190 -2 c0 -8 7 -17 16 -20 8
-3 12 -10 9 -16 -3 -5 1 -10 9 -10 9 0 16 7 16 15 0 8 5 15 11 15 5 0 7 5 4
10 -3 6 1 10 9 10 17 0 30 -18 31 -40 0 -9 7 -14 18 -12 17 3 17 2 1 -17 -15
-18 -20 -18 -38 -6 -11 8 -30 12 -43 9 -26 -7 -52 17 -53 48 0 9 -6 19 -12 21
-8 3 -6 6 5 6 9 1 17 -5 17 -13z m-110 -96 c0 -5 -2 -10 -4 -10 -3 0 -8 5 -11
10 -3 6 -1 10 4 10 6 0 11 -4 11 -10z m-80 -10 c0 -5 -4 -10 -10 -10 -5 0 -10
5 -10 10 0 6 5 10 10 10 6 0 10 -4 10 -10z m152 -3 c14 -22 8 -37 -16 -37 -21
0 -36 16 -36 39 0 12 44 11 52 -2z m-279 -38 c6 -23 -9 -16 -23 11 -8 16 -7
18 4 14 8 -3 16 -14 19 -25z m294 -19 c37 0 20 -12 -35 -26 -51 -13 -62 -11
-62 13 0 9 6 13 15 10 8 -4 17 -2 21 4 3 6 13 8 21 5 8 -3 26 -6 40 -6z m-289
-41 c-3 -8 -7 -3 -11 10 -4 17 -3 21 5 13 5 -5 8 -16 6 -23z m192 -3 c0 -3 -4
-8 -10 -11 -5 -3 -10 -1 -10 4 0 6 5 11 10 11 6 0 10 -2 10 -4z"/>
<path d="M2690 3231 c0 -5 9 -11 21 -14 16 -4 18 -3 8 9 -13 16 -29 19 -29 5z"/>
<path d="M2700 3160 c0 -5 10 -15 23 -21 22 -12 22 -12 3 10 -21 23 -26 26
-26 11z"/>
<path d="M2300 3108 c0 -4 6 -8 14 -8 8 0 17 4 20 8 2 4 -4 8 -15 8 -10 0 -19
-4 -19 -8z"/>
<path d="M95 4199 c-22 -5 -50 -10 -62 -10 -21 1 -23 -4 -23 -53 0 -46 4 -56
25 -70 13 -9 32 -16 41 -16 10 0 14 -3 11 -7 -7 -7 85 -73 102 -73 6 0 14 7
19 16 13 24 35 7 28 -21 -5 -18 1 -28 23 -44 34 -25 45 -26 37 -6 -3 9 0 15
10 15 12 0 15 -6 10 -24 -7 -30 18 -43 34 -18 9 14 10 14 5 -5 -5 -20 5 -29
74 -74 l81 -51 122 -214 c68 -117 126 -214 130 -214 3 0 12 17 18 38 21 68 32
92 41 86 5 -3 9 15 9 39 0 24 4 57 9 73 15 45 21 163 10 191 -5 14 -19 27 -30
30 -11 3 -16 9 -11 12 5 3 12 33 16 65 5 49 3 61 -12 72 -15 12 -15 12 7 7 22
-6 23 -4 17 28 -3 19 -7 46 -9 60 -2 29 -66 89 -113 106 -16 6 -58 22 -94 36
-60 23 -83 26 -275 30 -122 3 -227 2 -250 -4z m319 -24 c-4 -8 -11 -15 -16
-15 -6 0 -5 6 2 15 7 8 14 15 16 15 2 0 1 -7 -2 -15z m-164 -35 c0 -5 -9 -6
-20 -3 -20 5 -25 15 -13 26 7 8 33 -11 33 -23z m220 0 c0 -5 -4 -10 -9 -10 -6
0 -13 5 -16 10 -3 6 1 10 9 10 9 0 16 -4 16 -10z m-415 -30 c-3 -5 -12 -10
-18 -10 -7 0 -6 4 3 10 19 12 23 12 15 0z m222 -26 c-9 -9 -28 6 -21 18 4 6
10 6 17 -1 6 -6 8 -13 4 -17z m-36 -12 c5 -15 19 -33 31 -41 18 -11 22 -11 30
3 12 22 28 11 28 -20 0 -14 -4 -22 -10 -19 -6 3 -7 -1 -4 -10 5 -13 1 -15 -26
-10 -47 8 -54 15 -33 31 10 7 13 14 6 14 -6 0 -14 9 -18 19 -4 13 -12 18 -23
15 -13 -5 -14 -4 -3 4 9 7 10 12 2 16 -14 9 -14 26 0 26 5 0 14 -12 20 -28z
m79 2 c0 -8 -9 -14 -20 -14 -22 0 -26 10 -8 28 13 13 28 7 28 -14z m95 -14
c-3 -5 -10 -10 -16 -10 -5 0 -9 5 -9 10 0 6 7 10 16 10 8 0 12 -4 9 -10z m245
-14 c0 -3 -4 -8 -10 -11 -5 -3 -10 -1 -10 4 0 6 5 11 10 11 6 0 10 -2 10 -4z
m-450 -28 c0 -14 -18 -17 -28 -5 -8 10 -6 13 9 13 10 0 19 -4 19 -8z m457 -10
c-3 -8 -6 -5 -6 6 -1 11 2 17 5 13 3 -3 4 -12 1 -19z m-179 -90 c-3 -7 -14
-14 -26 -14 -18 -1 -20 2 -11 12 14 17 42 18 37 2z m187 -19 c11 -17 -1 -21
-15 -4 -8 9 -8 15 -2 15 6 0 14 -5 17 -11z m65 -5 c0 -2 -7 -4 -15 -4 -8 0
-15 4 -15 10 0 5 7 7 15 4 8 -4 15 -8 15 -10z m-10 -74 c0 -5 -4 -10 -10 -10
-5 0 -10 5 -10 10 0 6 5 10 10 10 6 0 10 -4 10 -10z m-12 -68 c2 -7 0 -12 -5
-11 -22 4 -34 -3 -45 -26 -6 -14 -17 -25 -25 -25 -20 0 -16 11 20 46 33 32 48
37 55 16z m122 -18 c0 -8 -2 -14 -4 -14 -2 0 -13 -3 -23 -7 -17 -6 -17 -6 0
14 9 11 14 23 10 28 -5 4 -2 5 5 1 6 -4 12 -14 12 -22z"/>
<path d="M893 3932 c0 -11 6 -20 12 -19 6 1 12 -28 15 -68 4 -53 11 -78 28
-99 26 -33 28 -46 7 -46 -9 0 -15 -9 -15 -25 0 -14 -4 -25 -10 -25 -5 0 -10
-9 -10 -21 0 -12 4 -17 11 -14 6 4 5 -2 -3 -14 -7 -12 -16 -21 -20 -21 -5 0
-8 -15 -8 -34 0 -19 -5 -38 -11 -42 -7 -4 -9 -22 -6 -48 7 -48 -7 -81 -22 -56
-15 22 -26 3 -14 -22 15 -34 4 -86 -23 -107 -20 -16 -21 -20 -8 -25 8 -3 13
-10 9 -16 -3 -5 70 -141 163 -302 92 -161 183 -319 201 -350 18 -32 37 -58 43
-58 6 0 8 -3 5 -7 -4 -3 4 -25 18 -49 43 -74 37 -96 -80 -301 -58 -102 -102
-190 -99 -196 4 -7 3 -9 -1 -4 -12 10 -44 -43 -37 -61 3 -9 1 -13 -5 -9 -8 5
-196 -310 -257 -430 -19 -38 -12 -113 10 -113 8 0 14 5 14 10 0 6 4 10 9 10 5
0 7 -9 4 -20 -3 -11 -12 -20 -19 -20 -18 0 -18 -8 1 -26 17 -17 20 -91 5 -114
-7 -12 -10 -8 -11 15 l-1 30 -9 -32 c-8 -26 -5 -41 11 -73 11 -22 17 -40 12
-40 -14 0 -1 -54 19 -80 l20 -25 -7 30 c-5 25 -4 28 7 17 10 -9 11 -21 3 -51
-6 -22 -7 -46 -3 -53 15 -23 10 -46 -16 -73 -14 -14 -29 -25 -33 -25 -13 0
-10 -49 4 -54 8 -3 14 -13 14 -21 0 -34 20 -2 21 33 0 20 3 32 5 25 3 -7 12
-9 21 -6 12 5 14 3 7 -8 -12 -19 -17 -59 -7 -59 14 0 30 34 29 62 -2 31 10 38
16 11 3 -14 8 -11 20 13 9 17 24 36 32 43 9 8 16 22 16 33 0 10 7 21 15 24 8
4 62 72 118 153 172 244 179 254 230 324 41 56 47 70 37 83 -16 18 -5 31 13
16 19 -17 98 96 90 128 -5 19 -3 21 14 16 13 -4 23 -2 26 6 4 10 116 171 211
303 8 11 73 103 145 203 161 226 160 220 70 349 -33 48 -72 105 -86 125 -17
25 -30 35 -41 31 -12 -3 -13 -2 -4 4 9 7 -17 51 -104 172 -88 123 -119 160
-128 152 -16 -13 -27 -4 -19 15 3 8 10 11 15 8 6 -4 5 3 -2 15 -6 12 -18 25
-26 28 -7 3 -12 8 -9 13 2 4 -7 18 -20 30 -14 13 -25 28 -25 33 0 17 -72 107
-81 101 -5 -3 -12 2 -15 10 -3 9 -10 16 -16 16 -20 0 -36 26 -26 44 7 12 5 23
-6 39 -9 12 -30 43 -48 69 -18 26 -36 45 -40 42 -4 -3 -8 3 -8 12 0 28 -79
126 -97 120 -23 -9 -35 4 -18 21 14 13 12 20 -19 61 -18 26 -70 98 -115 161
-44 63 -81 108 -81 100 -1 -10 -5 -9 -15 5 -13 18 -14 18 -12 -2z m41 -367
c-6 -16 -24 -21 -24 -7 0 11 11 22 21 22 5 0 6 -7 3 -15z m31 -5 c3 -5 1 -10
-4 -10 -6 0 -11 5 -11 10 0 6 2 10 4 10 3 0 8 -4 11 -10z m156 -63 c-1 -12
-15 -9 -19 4 -3 6 1 10 8 8 6 -3 11 -8 11 -12z m-27 -78 c-3 -5 -10 -7 -15 -3
-5 3 -7 10 -3 15 3 5 10 7 15 3 5 -3 7 -10 3 -15z m-117 -31 c-3 -8 -6 -5 -6
6 -1 11 2 17 5 13 3 -3 4 -12 1 -19z m233 12 c0 -5 -2 -10 -4 -10 -3 0 -8 5
-11 10 -3 6 -1 10 4 10 6 0 11 -4 11 -10z m87 -36 c-3 -3 -12 -4 -19 -1 -8 3
-5 6 6 6 11 1 17 -2 13 -5z m-307 -34 c0 -5 -4 -10 -10 -10 -5 0 -10 5 -10 10
0 6 5 10 10 10 6 0 10 -4 10 -10z m259 -30 c11 -24 11 -24 -3 -6 -9 11 -16 24
-16 30 0 12 5 7 19 -24z m-319 11 c0 -6 -4 -13 -10 -16 -5 -3 -10 1 -10 9 0 9
5 16 10 16 6 0 10 -4 10 -9z m400 -11 c0 -5 -5 -10 -11 -10 -5 0 -7 5 -4 10 3
6 8 10 11 10 2 0 4 -4 4 -10z m-125 -70 c-9 -16 -18 -30 -21 -30 -2 0 2 14 11
30 9 17 18 30 21 30 2 0 -2 -13 -11 -30z m-337 -10 c-13 -20 -28 -27 -28 -12
0 10 22 32 32 32 5 0 3 -9 -4 -20z m522 -10 c-8 -5 -19 -10 -25 -10 -5 0 -3 5
5 10 8 5 20 10 25 10 6 0 3 -5 -5 -10z m-373 -94 c-3 -8 -1 -16 6 -19 6 -2 4
-6 -6 -10 -12 -5 -17 -1 -17 12 0 17 8 31 18 31 2 0 2 -6 -1 -14z m450 -18
c-4 -14 -1 -18 8 -14 7 2 18 -1 24 -7 7 -9 2 -16 -20 -26 -27 -12 -32 -11 -44
5 -19 25 -18 39 1 58 19 20 37 10 31 -16z m90 -62 c4 -4 1 -11 -7 -16 -21 -14
-27 -12 -32 8 -4 13 0 18 13 17 10 -1 22 -5 26 -9z m-272 -36 c3 -5 -1 -10 -9
-10 -9 0 -16 5 -16 10 0 6 4 10 9 10 6 0 13 -4 16 -10z m-35 -70 c0 -5 -5 -10
-11 -10 -5 0 -7 5 -4 10 3 6 8 10 11 10 2 0 4 -4 4 -10z m24 -16 c3 -8 2 -12
-4 -9 -6 3 -10 10 -10 16 0 14 7 11 14 -7z m66 11 c0 -2 -9 -9 -20 -15 -16 -9
-20 -8 -20 5 0 8 9 15 20 15 11 0 20 -2 20 -5z m-70 -45 c0 -5 -4 -10 -10 -10
-5 0 -10 5 -10 10 0 6 5 10 10 10 6 0 10 -4 10 -10z m126 -27 c-10 -10 -19 5
-10 18 6 11 8 11 12 0 2 -7 1 -15 -2 -18z m74 13 c0 -3 -4 -8 -10 -11 -5 -3
-10 -1 -10 4 0 6 5 11 10 11 6 0 10 -2 10 -4z m-170 -46 c0 -5 -4 -10 -10 -10
-5 0 -10 5 -10 10 0 6 5 10 10 10 6 0 10 -4 10 -10z m-180 -59 c0 -6 -4 -12
-8 -15 -5 -3 -9 1 -9 9 0 8 4 15 9 15 4 0 8 -4 8 -9z m420 -11 c0 -5 -4 -10
-10 -10 -5 0 -10 5 -10 10 0 6 5 10 10 10 6 0 10 -4 10 -10z m-340 -96 c0 -8
-4 -12 -10 -9 -5 3 -10 10 -10 16 0 5 5 9 10 9 6 0 10 -7 10 -16z m380 -21 c0
-13 -3 -13 -15 -3 -8 7 -12 16 -9 21 8 13 24 1 24 -18z m80 17 c0 -5 -4 -10
-10 -10 -5 0 -10 5 -10 10 0 6 5 10 10 10 6 0 10 -4 10 -10z m95 -10 c3 -5 1
-10 -4 -10 -6 0 -11 5 -11 10 0 6 2 10 4 10 3 0 8 -4 11 -10z m-235 -24 c0 -3
-4 -8 -10 -11 -5 -3 -10 -1 -10 4 0 6 5 11 10 11 6 0 10 -2 10 -4z m223 -42
c-7 -19 -23 -7 -23 18 0 17 3 18 14 8 8 -6 12 -18 9 -26z m-393 -24 c0 -5 -4
-10 -10 -10 -5 0 -10 5 -10 10 0 6 5 10 10 10 6 0 10 -4 10 -10z m-25 -50 c-3
-5 -10 -10 -16 -10 -5 0 -9 5 -9 10 0 6 7 10 16 10 8 0 12 -4 9 -10z m-45 -22
c0 -6 -6 -5 -15 2 -8 7 -15 14 -15 16 0 2 7 1 15 -2 8 -4 15 -11 15 -16z m180
-17 c0 -5 -7 -11 -14 -14 -10 -4 -13 -1 -9 9 6 15 23 19 23 5z m136 -46 c9 -8
11 -15 6 -15 -5 0 -15 7 -22 15 -7 8 -9 15 -6 15 4 0 14 -7 22 -15z m-196 -35
c0 -5 -4 -10 -10 -10 -5 0 -10 5 -10 10 0 6 5 10 10 10 6 0 10 -4 10 -10z
m479 -35 c0 -5 -4 -3 -9 5 -5 8 -9 22 -9 30 0 16 17 -16 18 -35z m-429 -18 c0
-18 -52 -39 -64 -27 -7 7 -4 10 7 10 9 0 17 6 17 13 0 7 9 13 20 14 11 1 20
-4 20 -10z m338 -5 c2 -7 -2 -10 -12 -6 -9 3 -16 11 -16 16 0 13 23 5 28 -10z
m-118 -27 c0 -8 -2 -15 -4 -15 -2 0 -6 7 -10 15 -3 8 -1 15 4 15 6 0 10 -7 10
-15z m-280 -25 c0 -5 -5 -10 -11 -10 -5 0 -7 5 -4 10 3 6 8 10 11 10 2 0 4 -4
4 -10z m151 -30 c5 0 9 -5 9 -11 0 -8 -4 -8 -15 1 -8 6 -19 9 -25 5 -14 -9
-13 8 3 24 10 10 13 9 15 -3 2 -9 8 -16 13 -16z m-171 -10 c0 -5 -4 -10 -10
-10 -5 0 -10 5 -10 10 0 6 5 10 10 10 6 0 10 -4 10 -10z m390 -10 c0 -5 -4
-10 -9 -10 -6 0 -13 5 -16 10 -3 6 1 10 9 10 9 0 16 -4 16 -10z m-290 -19 c0
-5 -7 -12 -16 -15 -14 -5 -15 -4 -4 9 14 17 20 19 20 6z m385 -1 c-3 -5 -13
-10 -21 -10 -8 0 -12 5 -9 10 3 6 13 10 21 10 8 0 12 -4 9 -10z m-45 -25 c0
-8 -2 -15 -4 -15 -2 0 -6 7 -10 15 -3 8 -1 15 4 15 6 0 10 -7 10 -15z m-390
-25 c0 -5 -4 -10 -10 -10 -5 0 -10 5 -10 10 0 6 5 10 10 10 6 0 10 -4 10 -10z
m141 -73 c12 -22 12 -22 -10 -3 -11 11 -21 23 -21 28 0 14 19 -1 31 -25z
m-304 4 c-1 -15 -4 -17 -14 -9 -17 14 -16 28 1 28 8 0 14 -9 13 -19z m115 -29
c-7 -2 -12 -11 -12 -20 0 -15 -2 -14 -17 1 -15 15 -16 19 -4 26 8 5 21 6 30 3
10 -4 11 -7 3 -10z m153 -21 c3 -5 1 -12 -5 -16 -5 -3 -10 1 -10 9 0 18 6 21
15 7z m-195 -21 c0 -5 -5 -10 -11 -10 -5 0 -7 5 -4 10 3 6 8 10 11 10 2 0 4
-4 4 -10z m86 -166 c4 -14 2 -30 -5 -37 -6 -6 -11 -9 -12 -6 -6 41 -5 69 2 69
5 0 12 -12 15 -26z m-26 -14 c0 -5 -4 -10 -10 -10 -5 0 -10 5 -10 10 0 6 5 10
10 10 6 0 10 -4 10 -10z m165 -50 c3 -5 1 -10 -4 -10 -6 0 -11 5 -11 10 0 6 2
10 4 10 3 0 8 -4 11 -10z m-90 -10 c-3 -5 -12 -10 -20 -10 -8 0 -17 5 -20 10
-4 6 5 10 20 10 15 0 24 -4 20 -10z m-215 -29 c0 -6 -4 -13 -10 -16 -5 -3 -10
1 -10 9 0 9 5 16 10 16 6 0 10 -4 10 -9z m-40 -171 c0 -5 -2 -10 -4 -10 -3 0
-8 5 -11 10 -3 6 -1 10 4 10 6 0 11 -4 11 -10z m-180 -170 c0 -5 -4 -10 -10
-10 -5 0 -10 5 -10 10 0 6 5 10 10 10 6 0 10 -4 10 -10z m150 -59 c0 -12 -20
-25 -27 -18 -7 7 6 27 18 27 5 0 9 -4 9 -9z m67 3 c-3 -3 -12 -4 -19 -1 -8 3
-5 6 6 6 11 1 17 -2 13 -5z m-162 -95 c11 -17 2 -18 -25 -4 -24 14 -24 14 -3
15 12 0 25 -5 28 -11z m-115 -30 c0 -6 -4 -7 -10 -4 -5 3 -10 11 -10 16 0 6 5
7 10 4 6 -3 10 -11 10 -16z m-150 -70 c0 -6 -4 -7 -10 -4 -5 3 -10 11 -10 16
0 6 5 7 10 4 6 -3 10 -11 10 -16z m60 -19 c0 -5 -4 -10 -10 -10 -5 0 -10 5
-10 10 0 6 5 10 10 10 6 0 10 -4 10 -10z m4 -45 c-4 -8 -13 -15 -21 -15 -13 0
-13 3 -3 15 7 8 16 15 21 15 5 0 6 -7 3 -15z m11 -214 c3 -5 1 -12 -5 -16 -5
-3 -10 1 -10 9 0 18 6 21 15 7z"/>
<path d="M882 3874 c1 -9 9 -19 16 -22 9 -3 13 2 10 14 -1 9 -9 19 -16 22 -9
3 -13 -2 -10 -14z"/>
<path d="M891 3808 c-1 -10 -9 -18 -18 -18 -14 0 -12 -4 7 -17 31 -21 40 -34
33 -48 -3 -5 0 -5 7 2 10 10 11 15 1 27 -7 8 -16 27 -21 43 -5 16 -9 20 -9 11z"/>
<path d="M820 3362 c0 -14 6 -22 16 -22 14 0 15 3 3 18 -7 9 -15 19 -16 21 -2
2 -3 -5 -3 -17z"/>
<path d="M815 3309 c-9 -28 1 -36 14 -10 7 12 7 22 2 26 -5 3 -13 -4 -16 -16z"/>
<path d="M670 1285 c-19 -31 -21 -39 -9 -47 11 -8 11 -9 -2 -5 -11 4 -27 -14
-54 -61 -22 -36 -38 -74 -38 -84 1 -10 -2 -16 -7 -13 -5 3 -16 -8 -25 -24 -21
-41 -49 -66 -122 -107 -43 -24 -63 -41 -65 -57 -2 -17 -10 -22 -33 -23 -19 0
-58 -19 -104 -49 -70 -47 -72 -50 -52 -63 12 -8 21 -21 21 -29 0 -11 7 -13 28
-8 41 9 62 -17 26 -34 -20 -9 -28 -8 -40 4 -9 8 -20 15 -25 15 -5 0 -9 9 -9
20 0 10 -9 24 -21 30 -19 10 -20 10 -10 -9 17 -30 13 -37 -7 -13 l-18 20 -45
-33 c-25 -18 -46 -39 -46 -46 0 -8 -3 -30 -7 -51 -6 -34 -5 -37 21 -42 50 -9
118 -16 105 -10 -15 7 -6 24 14 24 8 0 14 -7 14 -15 0 -9 10 -15 23 -16 59 -2
125 3 155 12 24 8 37 8 47 -1 10 -8 39 -9 110 -2 53 5 98 12 100 14 3 3 0 19
-6 37 -9 25 -9 35 1 44 10 9 11 7 5 -10 -4 -14 -2 -23 4 -23 6 0 13 12 17 28
10 48 13 52 33 52 11 0 27 13 38 30 9 17 23 30 30 30 7 0 13 11 13 26 0 14 4
23 10 19 14 -9 12 8 -2 24 -11 11 -10 13 2 9 18 -6 19 -3 26 100 4 51 9 70 17
65 7 -3 0 6 -15 21 -14 15 -32 49 -39 77 -7 27 -17 49 -22 49 -5 0 -5 5 1 13
12 14 7 126 -6 139 -6 6 -18 -4 -32 -27z m-45 -346 c11 -17 -1 -21 -15 -4 -8
9 -8 15 -2 15 6 0 14 -5 17 -11z m-80 -29 c3 -5 1 -10 -4 -10 -6 0 -11 5 -11
10 0 6 2 10 4 10 3 0 8 -4 11 -10z m115 -36 c0 -8 -5 -12 -10 -9 -6 4 -8 11
-5 16 9 14 15 11 15 -7z m-210 -14 c0 -5 -4 -10 -10 -10 -5 0 -10 5 -10 10 0
6 5 10 10 10 6 0 10 -4 10 -10z m155 -161 c11 -17 -1 -21 -15 -4 -8 9 -8 15
-2 15 6 0 14 -5 17 -11z m-506 -8 c16 -10 6 -31 -15 -31 -8 0 -14 9 -14 20 0
22 7 25 29 11z m46 -11 c3 -5 1 -10 -4 -10 -6 0 -11 5 -11 10 0 6 2 10 4 10 3
0 8 -4 11 -10z m-45 -59 c0 -6 -4 -13 -10 -16 -5 -3 -10 1 -10 9 0 9 5 16 10
16 6 0 10 -4 10 -9z m240 5 c0 -3 -4 -8 -10 -11 -5 -3 -10 -1 -10 4 0 6 5 11
10 11 6 0 10 -2 10 -4z m40 -22 c0 -8 -4 -12 -10 -9 -5 3 -10 10 -10 16 0 5 5
9 10 9 6 0 10 -7 10 -16z"/>
<path d="M757 1243 c-4 -3 -7 -13 -7 -22 1 -13 3 -13 11 2 11 19 8 33 -4 20z"/>
<path d="M787 873 c-4 -3 -7 -11 -7 -17 0 -6 5 -5 12 2 6 6 9 14 7 17 -3 3 -9
2 -12 -2z"/>
<path d="M755 721 c6 -11 2 -13 -19 -9 -21 4 -24 3 -15 -8 6 -8 20 -14 29 -14
10 0 20 -6 23 -12 3 -9 13 -5 31 12 24 22 25 25 9 31 -29 12 -36 10 -23 -6 17
-21 1 -19 -23 3 -12 10 -17 11 -12 3z"/>
<path d="M701 688 c1 -7 4 -24 8 -37 l6 -23 25 20 24 19 -32 17 c-24 12 -32
13 -31 4z"/>
<path d="M666 681 c-4 -5 -2 -12 3 -15 5 -4 12 -2 15 3 4 5 2 12 -3 15 -5 4
-12 2 -15 -3z"/>
<path d="M640 642 c0 -18 25 -31 40 -22 12 7 12 12 2 22 -9 9 -12 9 -12 -1 0
-11 -3 -11 -15 -1 -8 7 -15 8 -15 2z"/>
<path d="M880 304 c-91 -58 -171 -112 -178 -119 -7 -6 -17 -39 -21 -71 -7 -48
-5 -61 7 -70 30 -22 221 -47 307 -40 44 4 124 7 178 7 53 0 97 3 97 5 0 13
-22 44 -30 44 -18 0 -90 85 -101 120 -7 19 -25 61 -40 92 -16 32 -29 68 -29
81 0 13 -6 31 -13 40 -11 16 -28 7 -177 -89z m130 10 c0 -8 -4 -12 -10 -9 -5
3 -10 10 -10 16 0 5 5 9 10 9 6 0 10 -7 10 -16z m184 -255 c-11 -18 -32 -9
-27 11 4 16 8 18 19 9 8 -6 11 -15 8 -20z m-314 11 c0 -5 -2 -10 -4 -10 -3 0
-8 5 -11 10 -3 6 -1 10 4 10 6 0 11 -4 11 -10z"/>
</g>
</svg>
