<svg xmlns="http://www.w3.org/2000/svg" version="1.1" xmlns:xlink="http://www.w3.org/1999/xlink" xmlns:svgjs="http://svgjs.dev/svgjs" width="32" height="32"><svg xmlns="http://www.w3.org/2000/svg" id="SvgjsSvg1122" viewBox="0 0 240 208.03117" height="32" width="32">
    <rect id="SvgjsRect1121" height="256" width="256" x="-8.0000038" y="-232.01559" transform="scale(1,-1)" style="fill:none"></rect>
    <path id="SvgjsPath1120" d="m 208,88.01559 c 0.022,-7.76563 -0.9868,-15.49983 -3,-23 l 22.24,-9.72 c 7.7885,-3.54752 5.31797,-15.19862 -3.24,-15.28 -1.10175,-0.003 -2.19181,0.22569 -3.2,0.67 l -21.42,9.33 C 184.75505,19.45231 153.88219,0 120,0 86.117801,0 55.244942,19.45231 40.619996,50.01559 l -21.42,-9.33 c -1.008188,-0.44431 -2.098254,-0.67254 -3.199999,-0.67 -8.6646335,0.005 -11.1389735,11.85889 -3.2,15.33 l 22.2,9.67 c -2.013202,7.50017 -3.022011,15.23437 -3,23 v 8 H 7.9999965 c -4.418281,0 -7.9999965,3.58172 -7.9999965,8 0,4.41828 3.5817155,8 7.9999965,8 H 31.999997 v 8 c -0.02201,7.76563 0.986798,15.49983 3,23 l -22.2,9.67 c -4.1510795,1.70427 -6.0887605,6.48884 -4.2934005,10.60133 1.7953605,4.1125 6.6214735,5.94425 10.6933995,4.05867 l 21.42,-9.33 C 55.244942,188.57887 86.117801,208.03118 120,208.03118 c 33.88219,0 64.75505,-19.45231 79.38,-50.01559 l 21.42,9.36 c 4.02365,1.65195 8.62991,-0.21353 10.37016,-4.19978 1.74024,-3.98625 -0.0232,-8.63252 -3.97016,-10.46022 l -22.2,-9.75 c 2.0132,-7.50017 3.02201,-15.23437 3,-23 v -8 h 24 c 4.41828,0 8,-3.58172 8,-8 0,-4.41828 -3.58172,-8 -8,-8 h -24 z m -80,0 c 0,4.41828 -3.58172,8 -8,8 -4.41828,0 -8,-3.58172 -8,-8 v -64 c 0,-4.41828 3.58172,-8 8,-8 4.41828,0 8,3.58172 8,8 z m 64,32 c 0,39.76453 -32.2355,71.99997 -72,71.99997 -39.764505,0 -72.000003,-32.23544 -72.000003,-71.99997 v -8 H 192 Z"></path>
    <ellipse style="opacity:1;fill:#000000;fill-opacity:1;fill-rule:nonzero;stroke:#000000;stroke-width:0.03516597;stroke-miterlimit:4;stroke-dasharray:none;stroke-opacity:1" id="SvgjsEllipse1119" cx="85.913368" cy="-140.01559" rx="8" ry="12" transform="scale(1,-1)">
        <animate id="SvgjsAnimate1118" attributeName="ry" dur="150ms" values="12;0;12" begin="8s;blink.end+8s"></animate>
    </ellipse>
    <ellipse style="opacity:1;fill:#000000;fill-opacity:1;fill-rule:nonzero;stroke:#000000;stroke-width:0.03653909;stroke-miterlimit:4;stroke-dasharray:none;stroke-opacity:1" id="SvgjsEllipse1117" cx="152.30949" cy="-140.01559" rx="8" ry="12" transform="scale(1,-1)">
        <animate attributeName="ry" dur="150ms" values="12;0;12" begin="blink.begin"></animate>
    </ellipse>
</svg><style>@media (prefers-color-scheme: light) { :root { filter: none; } }
@media (prefers-color-scheme: dark) { :root { filter: invert(100%); } }
</style></svg>