<?xml version="1.0" standalone="no"?>
<!DOCTYPE svg PUBLIC "-//W3C//DTD SVG 20010904//EN"
 "http://www.w3.org/TR/2001/REC-SVG-20010904/DTD/svg10.dtd">
<svg version="1.0" xmlns="http://www.w3.org/2000/svg"
 width="402.000000pt" height="402.000000pt" viewBox="0 0 402.000000 402.000000"
 preserveAspectRatio="xMidYMid meet">
<metadata>
Created by potrace 1.14, written by Peter Selinger 2001-2017
</metadata>
<g transform="translate(0.000000,402.000000) scale(0.100000,-0.100000)"
fill="#000000" stroke="none">
<path d="M1230 2980 c0 -15 7 -20 25 -20 18 0 25 -5 25 -20 0 -13 7 -20 20
-20 17 0 20 -7 20 -45 0 -38 3 -45 20 -45 17 0 20 -7 20 -40 0 -33 3 -40 20
-40 17 0 20 7 20 40 0 36 3 40 25 40 18 0 25 5 25 20 0 19 7 20 125 20 118 0
125 -1 125 -20 0 -13 7 -20 20 -20 17 0 20 -7 20 -40 0 -33 3 -40 20 -40 18 0
20 -7 20 -65 0 -58 -2 -65 -20 -65 -17 0 -20 -7 -20 -40 0 -33 -3 -40 -20 -40
-15 0 -20 -7 -20 -25 l0 -25 -125 0 -125 0 0 25 c0 20 -5 25 -25 25 -22 0 -25
4 -25 40 0 33 -3 40 -20 40 -13 0 -20 7 -20 20 0 13 -7 20 -20 20 -17 0 -20
-7 -20 -40 0 -33 -3 -40 -20 -40 -17 0 -20 -7 -20 -45 0 -41 -2 -45 -25 -45
-18 0 -25 -5 -25 -20 0 -15 7 -20 25 -20 l25 0 0 -145 0 -145 -25 0 c-20 0
-25 -5 -25 -25 0 -18 -5 -25 -20 -25 -13 0 -20 -7 -20 -20 0 -13 -7 -20 -20
-20 -13 0 -20 -7 -20 -20 0 -17 -7 -20 -40 -20 l-40 0 0 -85 c0 -84 0 -85 -25
-85 -22 0 -25 -4 -25 -40 0 -33 -3 -40 -20 -40 -17 0 -20 -7 -20 -45 0 -38 -3
-45 -20 -45 -13 0 -20 -7 -20 -20 0 -17 -7 -20 -45 -20 -38 0 -45 -3 -45 -20
0 -19 -7 -20 -145 -20 -138 0 -145 1 -145 20 0 17 -7 20 -40 20 -33 0 -40 3
-40 20 0 15 -7 20 -25 20 -23 0 -25 4 -25 45 0 38 -3 45 -20 45 -17 0 -20 7
-20 40 0 33 -3 40 -20 40 -18 0 -20 7 -20 85 0 78 2 85 20 85 17 0 20 7 20 40
0 33 3 40 20 40 17 0 20 7 20 45 0 41 2 45 25 45 18 0 25 5 25 20 0 17 7 20
40 20 33 0 40 3 40 20 0 18 7 20 85 20 l85 0 0 85 c0 78 2 85 20 85 13 0 20 7
20 20 0 13 7 20 20 20 15 0 20 7 20 25 0 18 -5 25 -20 25 -13 0 -20 7 -20 20
0 13 -7 20 -20 20 -19 0 -20 7 -20 145 0 138 1 145 20 145 17 0 20 7 20 45 0
38 -3 45 -20 45 -13 0 -20 -7 -20 -20 0 -17 -7 -20 -45 -20 -41 0 -45 -2 -45
-25 0 -18 -5 -25 -20 -25 -13 0 -20 -7 -20 -20 0 -13 -7 -20 -20 -20 -17 0
-20 -7 -20 -40 0 -33 -3 -40 -20 -40 -17 0 -20 -7 -20 -45 0 -38 -3 -45 -20
-45 -18 0 -20 -7 -20 -60 0 -57 -1 -60 -25 -60 l-25 0 0 -105 0 -105 25 0 c20
0 25 -5 25 -25 0 -20 -5 -25 -25 -25 -18 0 -25 -5 -25 -20 0 -17 -7 -20 -40
-20 -33 0 -40 -3 -40 -20 0 -17 -7 -20 -45 -20 -38 0 -45 -3 -45 -20 0 -13 -7
-20 -20 -20 -15 0 -20 -7 -20 -25 0 -18 -5 -25 -20 -25 -13 0 -20 -7 -20 -20
0 -13 -7 -20 -20 -20 -13 0 -20 -7 -20 -20 0 -13 -7 -20 -20 -20 -17 0 -20 -7
-20 -40 0 -36 -2 -40 -25 -40 -24 0 -25 -2 -25 -65 0 -58 -2 -65 -20 -65 -19
0 -20 -7 -20 -125 0 -118 1 -125 20 -125 18 0 20 -7 20 -65 0 -63 1 -65 25
-65 23 0 25 -4 25 -40 0 -33 3 -40 20 -40 15 0 20 -7 20 -25 0 -18 5 -25 20
-25 13 0 20 -7 20 -20 0 -13 7 -20 20 -20 13 0 20 -7 20 -20 0 -13 7 -20 20
-20 13 0 20 -7 20 -20 0 -17 7 -20 45 -20 41 0 45 -2 45 -25 0 -22 4 -25 40
-25 33 0 40 -3 40 -20 0 -19 7 -20 190 -20 183 0 190 1 190 20 0 17 7 20 45
20 41 0 45 2 45 25 0 23 4 25 40 25 33 0 40 3 40 20 0 13 7 20 20 20 13 0 20
7 20 20 0 15 7 20 25 20 18 0 25 5 25 20 0 13 7 20 20 20 13 0 20 -7 20 -20 0
-13 7 -20 20 -20 13 0 20 -7 20 -20 0 -17 7 -20 40 -20 33 0 40 -3 40 -20 0
-19 7 -20 215 -20 208 0 215 1 215 20 0 17 7 20 40 20 33 0 40 3 40 20 0 13 7
20 20 20 13 0 20 7 20 20 0 17 7 20 45 20 l45 0 0 -40 c0 -33 3 -40 20 -40 13
0 20 -7 20 -20 0 -17 7 -20 40 -20 36 0 40 -2 40 -25 0 -20 5 -25 25 -25 18 0
25 -5 25 -20 0 -17 7 -20 40 -20 33 0 40 -3 40 -20 0 -19 7 -20 210 -20 203 0
210 1 210 20 0 17 7 20 45 20 38 0 45 3 45 20 0 13 7 20 20 20 15 0 20 7 20
25 0 23 4 25 40 25 33 0 40 3 40 20 0 15 7 20 25 20 18 0 25 -5 25 -20 0 -17
7 -20 40 -20 36 0 40 -2 40 -25 l0 -25 150 0 150 0 0 25 c0 23 4 25 40 25 33
0 40 3 40 20 0 20 7 20 380 20 373 0 380 0 380 20 0 17 -7 20 -45 20 -38 0
-45 3 -45 20 0 18 -7 20 -60 20 -57 0 -60 1 -60 25 0 23 -4 25 -45 25 -38 0
-45 3 -45 20 0 18 -7 20 -60 20 -53 0 -60 2 -60 20 0 17 -7 20 -45 20 -38 0
-45 3 -45 20 0 18 -7 20 -60 20 l-60 0 0 85 c0 84 0 85 -25 85 -23 0 -25 4
-25 45 0 38 -3 45 -20 45 -18 0 -20 -7 -20 -65 0 -58 -2 -65 -20 -65 -13 0
-20 -7 -20 -20 0 -13 -7 -20 -20 -20 -15 0 -20 -7 -20 -25 0 -25 -1 -25 -85
-25 -84 0 -85 0 -85 25 0 18 -5 25 -20 25 -13 0 -20 7 -20 20 0 15 -7 20 -25
20 -25 0 -25 1 -25 85 0 84 0 85 25 85 18 0 25 5 25 20 0 13 7 20 20 20 13 0
20 7 20 20 0 19 7 20 210 20 203 0 210 1 210 20 0 17 -7 20 -40 20 -36 0 -40
3 -40 25 0 24 -2 25 -65 25 -58 0 -65 2 -65 20 0 18 -7 20 -65 20 l-65 0 0
170 c0 163 -1 170 -20 170 -17 0 -20 7 -20 40 0 33 -3 40 -20 40 -13 0 -20 7
-20 20 0 13 -7 20 -20 20 -13 0 -20 7 -20 20 0 15 -7 20 -25 20 -20 0 -25 5
-25 25 0 18 -5 25 -20 25 -15 0 -20 -7 -20 -25 0 -18 5 -25 20 -25 13 0 20 -7
20 -20 0 -15 7 -20 25 -20 l25 0 0 -105 0 -105 -25 0 c-22 0 -25 -4 -25 -40
l0 -40 -40 0 c-36 0 -40 -2 -40 -25 0 -24 -2 -25 -65 -25 -63 0 -65 1 -65 25
0 23 -4 25 -40 25 -33 0 -40 3 -40 20 0 13 -7 20 -20 20 -17 0 -20 7 -20 40 0
36 -2 40 -25 40 -24 0 -25 2 -25 65 0 63 1 65 25 65 23 0 25 4 25 40 l0 40 40
0 c36 0 40 3 40 25 0 24 2 25 65 25 58 0 65 2 65 20 0 18 -7 20 -85 20 -78 0
-85 -2 -85 -20 0 -13 -7 -20 -20 -20 -13 0 -20 7 -20 20 0 15 -7 20 -25 20
-22 0 -25 4 -25 40 0 33 -3 40 -20 40 -17 0 -20 7 -20 45 0 38 -3 45 -20 45
-13 0 -20 7 -20 20 0 13 -7 20 -20 20 -13 0 -20 7 -20 20 0 13 -7 20 -20 20
-13 0 -20 7 -20 20 0 15 -7 20 -25 20 -20 0 -25 5 -25 25 0 18 -5 25 -20 25
-15 0 -20 -7 -20 -25 0 -18 5 -25 20 -25 13 0 20 -7 20 -20 0 -15 7 -20 25
-20 18 0 25 -5 25 -20 0 -13 7 -20 20 -20 19 0 20 -7 20 -150 0 -143 -1 -150
-20 -150 -13 0 -20 -7 -20 -20 0 -15 -7 -20 -25 -20 -18 0 -25 -5 -25 -20 0
-13 -7 -20 -20 -20 -13 0 -20 -7 -20 -20 0 -17 -7 -20 -40 -20 -33 0 -40 -3
-40 -20 0 -18 -7 -20 -85 -20 -78 0 -85 2 -85 20 0 17 -7 20 -45 20 -38 0 -45
3 -45 20 0 13 -7 20 -20 20 -13 0 -20 7 -20 20 0 13 -7 20 -20 20 -13 0 -20 7
-20 20 0 13 -7 20 -20 20 -19 0 -20 7 -20 150 0 143 1 150 20 150 13 0 20 7
20 20 0 13 7 20 20 20 13 0 20 7 20 20 0 13 7 20 20 20 15 0 20 7 20 25 0 23
4 25 45 25 38 0 45 3 45 20 0 17 7 20 40 20 33 0 40 3 40 20 0 19 -7 20 -125
20 -118 0 -125 -1 -125 -20 0 -18 -7 -20 -65 -20 -58 0 -65 -2 -65 -20 0 -19
-7 -20 -210 -20 -203 0 -210 1 -210 20 0 17 -7 20 -40 20 -33 0 -40 3 -40 20
0 15 -7 20 -25 20 -18 0 -25 -5 -25 -20z m720 -630 c0 -17 7 -20 45 -20 41 0
45 -2 45 -25 0 -18 5 -25 20 -25 17 0 20 -7 20 -40 0 -33 3 -40 20 -40 17 0
20 -7 20 -45 0 -38 -3 -45 -20 -45 -17 0 -20 -7 -20 -40 0 -33 -3 -40 -20 -40
-13 0 -20 -7 -20 -20 0 -17 -7 -20 -45 -20 -38 0 -45 -3 -45 -20 0 -17 -7 -20
-40 -20 -36 0 -40 -2 -40 -25 0 -18 -5 -25 -20 -25 -17 0 -20 -7 -20 -40 0
-36 -2 -40 -25 -40 -18 0 -25 -5 -25 -20 0 -13 -7 -20 -20 -20 -13 0 -20 -7
-20 -20 0 -13 -7 -20 -20 -20 -15 0 -20 -7 -20 -25 l0 -25 -150 0 -150 0 0 25
c0 18 -5 25 -20 25 -13 0 -20 7 -20 20 0 13 -7 20 -20 20 -13 0 -20 7 -20 20
0 13 -7 20 -20 20 -17 0 -20 7 -20 40 0 36 -2 40 -25 40 -25 0 -25 1 -25 85 0
84 0 85 25 85 23 0 25 4 25 45 0 38 3 45 20 45 13 0 20 7 20 20 0 13 7 20 20
20 13 0 20 7 20 20 0 13 7 20 20 20 13 0 20 7 20 20 0 19 7 20 150 20 143 0
150 -1 150 -20 0 -13 7 -20 20 -20 13 0 20 7 20 20 0 13 7 20 20 20 15 0 20 7
20 25 0 23 4 25 45 25 38 0 45 3 45 20 0 17 7 20 40 20 33 0 40 -3 40 -20z
m630 -215 c0 -23 4 -25 45 -25 38 0 45 -3 45 -20 0 -13 7 -20 20 -20 17 0 20
-7 20 -40 0 -33 3 -40 20 -40 17 0 20 -7 20 -45 0 -41 2 -45 25 -45 25 0 25
-1 25 -80 0 -79 0 -80 -25 -80 -23 0 -25 -4 -25 -45 0 -38 -3 -45 -20 -45 -17
0 -20 -7 -20 -40 0 -33 -3 -40 -20 -40 -15 0 -20 -7 -20 -25 0 -23 -4 -25 -45
-25 -38 0 -45 -3 -45 -20 0 -19 -7 -20 -145 -20 -138 0 -145 1 -145 20 0 17
-7 20 -45 20 -41 0 -45 2 -45 25 0 18 -5 25 -20 25 -17 0 -20 7 -20 40 0 33
-3 40 -20 40 -17 0 -20 7 -20 45 0 38 -3 45 -20 45 -18 0 -20 7 -20 80 0 73 2
80 20 80 17 0 20 7 20 45 0 38 3 45 20 45 17 0 20 7 20 40 0 33 3 40 20 40 13
0 20 7 20 20 0 17 7 20 45 20 41 0 45 2 45 25 l0 25 145 0 145 0 0 -25z"/>
<path d="M2250 2940 c0 -13 7 -20 20 -20 13 0 20 7 20 20 0 13 -7 20 -20 20
-13 0 -20 -7 -20 -20z"/>
</g>
</svg>
